<?xml version="1.0" encoding="utf-8"?>
<!-- Generator: Adobe Illustrator 27.0.1, SVG Export Plug-In . SVG Version: 6.00 Build 0)  -->
<svg version="1.1" id="Layer_1" xmlns="http://www.w3.org/2000/svg" xmlns:xlink="http://www.w3.org/1999/xlink" x="0px" y="0px"
	 viewBox="0 0 170 202" style="enable-background:new 0 0 170 202;" xml:space="preserve">
<style type="text/css">
	.st0{clip-path:url(#SVGID_00000178903616915994210480000016844504680048298140_);}
	.st1{fill:#8B4513;}
</style>
<g>
	<defs>
		<rect id="SVGID_1_" x="36.1" y="40.4" width="94" height="130"/>
	</defs>
	<clipPath id="SVGID_00000056403817813285694150000004115042759120540833_">
		<use xlink:href="#SVGID_1_"  style="overflow:visible;"/>
	</clipPath>
	<g style="clip-path:url(#SVGID_00000056403817813285694150000004115042759120540833_);">
		<path class="st1" d="M75.6,146.2c-1.8-5.4-5.2-10.1-9.7-13.6l-11-8.6c-11.3-8.8-18.2-22.1-18.8-36.5c0-26,21-47.1,47-47.1
			s47,21.1,47,47.1c-0.6,14.3-7.5,27.7-18.8,36.5l-11,8.6c-4.5,3.5-7.8,8.2-9.7,13.6l-1.3,3.8c-0.9,2.7-3.4,4.5-6.2,4.5
			s-5.3-1.8-6.2-4.5L75.6,146.2z M83.1,170.4c-10.4,0-18.8-1.3-18.8-2.8s8.4-2.8,18.8-2.8s18.8,1.3,18.8,2.8S93.5,170.4,83.1,170.4z
			 M83.1,124.3c20.8,0,37.6-16.9,37.6-37.7c0-20.8-16.8-37.7-37.6-37.7S45.5,65.8,45.5,86.6C45.5,107.4,62.4,124.3,83.1,124.3z
			 M102.2,82.2c2.9,0,5.3,2.4,5.3,5.4s-2.4,5.4-5.3,5.4h-2.8c-0.2,0-0.3,0-0.5-0.1c-1.9,3.2-4,5.8-7.4,7.5c-0.1,1.3-1.1,2.4-2.4,2.6
			c-0.1,0-1.1,0.1-1.2,0.1H76.2c0,0,0,0,0,0c0,0-0.9,0-0.9,0c-1.6,0-2.9-1.2-2.9-2.8c-6-2.9-9.4-8.9-9.9-15.9c0-0.5-0.1-0.9-0.1-1.4
			v-2.2c0-0.3,0.1-0.5,0.2-0.7c0.2-0.6,0.8-1,1.5-1h35.9c0.9,0,1.6,0.7,1.6,1.6c0,0,0,0,0,0.1s0,0.1,0,0.1v1.5H102.2z M102.2,90
			c1.3,0,2.4-1.1,2.4-2.4c0-1.3-1.1-2.4-2.4-2.4h-0.7c-0.2,1.7-0.6,3.3-1.2,4.8H102.2z M99.6,104c0.1,0,0.2,0,0.2,0
			c0,1.6-1.3,2.9-2.9,2.9H68.7c-1.6,0-2.9-1.3-2.9-2.9c0.1,0,0.1,0,0.2,0H99.6z M74.5,76.3c-0.3,0-0.7-0.1-1-0.2
			c-0.8-0.4-1-1.2-0.4-1.8c2-2.1,0.3-3.5,0.2-3.7c-1.3-1-3.1-3.8-0.2-7c0.6-0.6,1.7-0.7,2.5-0.3c0.8,0.4,1,1.2,0.4,1.8
			c-2,2.2-0.2,3.6-0.2,3.7c1.3,1,3.1,3.8,0.2,7C75.6,76.1,75.1,76.3,74.5,76.3z M81.7,76.3c-0.3,0-0.7-0.1-1-0.2
			c-0.8-0.4-1-1.2-0.4-1.8c2-2.1,0.3-3.5,0.2-3.7c-1.3-1-3.1-3.8-0.2-7c0.6-0.6,1.7-0.7,2.5-0.3c0.8,0.4,1,1.2,0.4,1.8
			c-2,2.2-0.2,3.6-0.2,3.7c1.3,1,3.1,3.8,0.2,7C82.8,76.1,82.3,76.3,81.7,76.3z M88.9,76.3c-0.3,0-0.7-0.1-1-0.2
			c-0.8-0.4-1-1.2-0.4-1.8c2-2.1,0.3-3.5,0.2-3.7c-1.3-1-3.1-3.8-0.2-7c0.6-0.6,1.7-0.7,2.5-0.3c0.8,0.4,1,1.2,0.4,1.8
			c-2,2.2-0.2,3.6-0.2,3.7c1.3,1,3.1,3.8,0.2,7C90,76.1,89.5,76.3,88.9,76.3z"/>
	</g>
</g>
<g>
	<g transform="translate(146.587078, 142.789739)">
		<g>
			<path class="st1" d="M-111.6-116.6c0.5,0.8,0.9,1.6,1.4,2.4c0.5,0.8,1,1.6,1.5,2.5l0.4,0.7c0.5,0.8,1,1.6,1.5,2.5
				c0.5,0.8,1,1.6,1.5,2.4l1.7-0.8l0.6,1l-6.1,3.7l-0.6-1l1.5-1.1c-0.4-0.8-0.9-1.6-1.4-2.4c-0.5-0.8-1-1.7-1.5-2.5l-5.3,3.2
				c0.5,0.9,1,1.7,1.5,2.5c0.5,0.8,1,1.6,1.5,2.4l1.7-0.8l0.6,1l-6.1,3.7l-0.6-1l1.5-1.1c-0.4-0.8-0.9-1.6-1.4-2.4
				c-0.5-0.8-1-1.6-1.5-2.5l-0.4-0.7c-0.5-0.8-1-1.6-1.5-2.4c-0.5-0.8-1-1.6-1.5-2.4l-1.7,0.8l-0.6-1l6.1-3.7l0.6,1l-1.5,1.2
				c0.4,0.8,0.9,1.5,1.3,2.2c0.4,0.7,0.9,1.5,1.4,2.2l5.3-3.2c-0.5-0.8-0.9-1.5-1.4-2.2c-0.4-0.8-0.9-1.5-1.4-2.2l-1.7,0.8l-0.6-1
				l6.1-3.7l0.6,1L-111.6-116.6z"/>
		</g>
	</g>
</g>
<g>
	<g transform="translate(159.352527, 135.338647)">
		<g>
			<path class="st1" d="M-107.4-107.9l-3.4-4.2l-0.1,5.4L-107.4-107.9z M-99.7-105.6l0.4,1.1l-6.3,2.2l-0.4-1.1l1.7-0.8l-2.2-2.7
				l-4.3,1.5l0,3.4l1.8-0.4l0.4,1.1l-4.8,1.7l-0.4-1.1l1.8-1l0.2-14.4l1.3-0.5l9.4,11.1L-99.7-105.6z"/>
		</g>
	</g>
</g>
<g>
	<g transform="translate(171.5126, 131.243891)">
		<g>
			<path class="st1" d="M-103.9-110.8c0.8,0.2,1.5,0.4,2.1,0.6c0.6,0.2,1.1,0.5,1.5,0.9c0.4,0.3,0.7,0.7,0.9,1.1
				c0.2,0.4,0.4,0.8,0.5,1.2c0.1,0.7,0.1,1.3-0.1,1.9c-0.2,0.6-0.5,1.2-0.9,1.7c-0.4,0.5-1,1-1.7,1.3c-0.7,0.3-1.5,0.6-2.4,0.8
				c-0.9,0.1-1.7,0.2-2.6,0.1c-0.9-0.1-1.6-0.2-2.3-0.5l-0.4-3.4l1.9-0.3l0.9,2.6c0.4,0.1,0.7,0.2,1.1,0.2c0.4,0,0.8,0,1.2-0.1
				c0.9-0.2,1.6-0.5,2.1-1c0.5-0.5,0.6-1.2,0.5-1.9c-0.1-0.6-0.4-1-0.8-1.2c-0.4-0.3-1.1-0.5-1.9-0.6l-1.2-0.2
				c-1.4-0.2-2.6-0.7-3.4-1.4c-0.9-0.7-1.4-1.6-1.6-2.7c-0.1-0.6-0.1-1.2,0.1-1.8c0.2-0.6,0.4-1.1,0.8-1.5c0.4-0.5,0.9-0.9,1.5-1.2
				c0.6-0.3,1.4-0.6,2.2-0.7c0.8-0.1,1.6-0.2,2.4-0.1c0.8,0.1,1.4,0.2,2,0.5l0.4,3.1l-1.8,0.3l-0.9-2.6c-0.3-0.1-0.6-0.1-0.9-0.1
				c-0.3,0-0.6,0-0.9,0.1c-0.8,0.1-1.4,0.4-1.8,0.9c-0.4,0.5-0.6,1.1-0.5,1.8c0.1,0.6,0.4,1.1,0.9,1.4c0.5,0.3,1.1,0.5,2,0.6
				L-103.9-110.8z"/>
		</g>
	</g>
</g>
<g>
	<g transform="translate(181.858913, 129.505576)">
		<g>
			<path class="st1" d="M-99.5-102.7c0.8,0,1.4-0.1,2-0.2c0.5-0.2,0.9-0.4,1.2-0.6c0.3-0.3,0.5-0.6,0.6-0.9c0.1-0.4,0.2-0.8,0.2-1.3
				c0-1.1-0.3-1.8-0.9-2.3c-0.6-0.5-1.5-0.7-2.9-0.7h-0.9c0,1.1,0,2.1,0,3.1c0,1,0,2,0.1,2.9H-99.5z M-100.2-115c0,0.9,0,1.7,0,2.6
				c0,0.9,0,1.7,0,2.6h0.8c1.1,0,1.9-0.2,2.4-0.7c0.5-0.5,0.8-1.1,0.8-2c0-0.9-0.2-1.5-0.7-1.9c-0.4-0.4-1.2-0.6-2.1-0.6H-100.2z
				 M-98.3-116.3c1.8,0,3.1,0.3,3.9,1c0.8,0.7,1.3,1.6,1.3,2.7c0,0.4-0.1,0.7-0.1,1.1c-0.1,0.3-0.2,0.6-0.5,0.9
				c-0.2,0.3-0.5,0.5-0.8,0.8c-0.3,0.2-0.8,0.4-1.3,0.5c0.7,0.1,1.2,0.3,1.7,0.5c0.5,0.2,0.8,0.5,1.1,0.8c0.3,0.3,0.5,0.7,0.6,1.1
				c0.1,0.4,0.2,0.8,0.2,1.2c0,0.5-0.1,1-0.3,1.5c-0.2,0.5-0.5,1-1.1,1.4c-0.5,0.4-1.2,0.7-2.2,1c-0.9,0.2-2.1,0.4-3.6,0.4l-6,0
				v-1.1l1.8-0.2c0-0.9,0.1-1.9,0-2.8c0-1,0-1.9,0-2.9v-0.8c0-1,0-1.9,0-2.9c0-0.9,0-1.9-0.1-2.9l-1.8-0.2l0-1.1L-98.3-116.3z"/>
		</g>
	</g>
</g>
<g>
	<g transform="translate(194.049778, 129.607746)">
		<g>
			<path class="st1" d="M-88.5-103l-0.8,3.9l-12-2.1l0.2-1.1l1.9,0.1c0.2-0.9,0.4-1.9,0.5-2.8c0.2-0.9,0.3-1.9,0.5-2.9l0.1-0.8
				c0.2-0.9,0.3-1.9,0.5-2.8c0.2-0.9,0.3-1.9,0.4-2.8l-1.8-0.5l0.2-1.1l11.5,2l-0.5,4l-1.7-0.3v-2.8l-4.4-0.8
				c-0.2,0.8-0.3,1.7-0.5,2.6c-0.2,0.9-0.3,1.7-0.5,2.6l2.9,0.5l0.6-1.9l1.2,0.2l-0.9,5.2l-1.2-0.2l0.1-2l-2.9-0.5
				c-0.2,1-0.4,2-0.5,3c-0.2,0.9-0.3,1.9-0.4,2.9l4.8,0.8l0.9-2.6L-88.5-103z"/>
		</g>
	</g>
</g>
<g>
	<g transform="translate(205.402096, 131.630154)">
		<g>
			<path class="st1" d="M-88-103.2l0-5.4l-3.5,4.1L-88-103.2z M-83.6-96.5l-0.4,1.1l-6.3-2.3l0.4-1.1l1.8,0.5v-3.5l-4.3-1.6
				l-2.2,2.6l1.6,0.9l-0.4,1.1l-4.8-1.8l0.4-1.1l2,0.4l9.3-10.9l1.3,0.5l0.2,14.5L-83.6-96.5z"/>
		</g>
	</g>
</g>
<g>
	<g transform="translate(217.346852, 136.036616)">
		<g>
			<path class="st1" d="M-72.8-102.2l-2-0.8L-82-91.4l-1-0.6l-1.9-14.9l-5.2,8.6l2.1,1.6l-0.6,1l-5.2-3.1l0.6-1l2,0.9l6.1-10
				l-0.1-0.5l-1.2-0.9l0.6-1l3.8,2.3l1.6,12.8l4.5-7.4l-2.1-1.6l0.6-1l5.2,3.1L-72.8-102.2z"/>
		</g>
	</g>
</g>
</svg>
