<svg xmlns="http://www.w3.org/2000/svg" xmlns:xlink="http://www.w3.org/1999/xlink" width="500" zoomAndPan="magnify" viewBox="0 0 375 374.999991" height="500" preserveAspectRatio="xMidYMid meet" version="1.0"><defs><g/><clipPath id="9da3a6d98e"><path d="M 152.15625 138.75 L 222.65625 138.75 L 222.65625 236.25 L 152.15625 236.25 Z M 152.15625 138.75 " clip-rule="nonzero"/></clipPath></defs><g clip-path="url(#9da3a6d98e)"><path fill="#8b4513" d="M 181.769531 218.054688 C 180.390625 214.023438 177.863281 210.480469 174.507812 207.867188 L 166.25 201.4375 C 157.769531 194.839844 152.621094 184.828125 152.171875 174.074219 C 152.171875 154.566406 167.949219 138.75 187.40625 138.75 C 206.863281 138.75 222.636719 154.566406 222.636719 174.074219 C 222.191406 184.828125 217.042969 194.839844 208.5625 201.4375 L 200.304688 207.867188 C 196.945312 210.480469 194.421875 214.023438 193.042969 218.054688 L 192.074219 220.898438 C 191.386719 222.894531 189.515625 224.238281 187.40625 224.238281 C 185.296875 224.238281 183.425781 222.894531 182.738281 220.898438 Z M 187.40625 236.25 C 179.621094 236.25 173.3125 235.300781 173.3125 234.128906 C 173.3125 232.957031 179.621094 232.011719 187.40625 232.011719 C 195.191406 232.011719 201.5 232.957031 201.5 234.128906 C 201.5 235.300781 195.191406 236.25 187.40625 236.25 Z M 187.40625 201.628906 C 202.972656 201.628906 215.59375 188.976562 215.59375 173.367188 C 215.59375 157.761719 202.972656 145.109375 187.40625 145.109375 C 171.839844 145.109375 159.21875 157.761719 159.21875 173.367188 C 159.21875 188.976562 171.839844 201.628906 187.40625 201.628906 Z M 201.71875 170.089844 C 203.929688 170.089844 205.726562 171.894531 205.726562 174.109375 C 205.726562 176.324219 203.929688 178.125 201.71875 178.125 L 199.589844 178.125 C 199.464844 178.125 199.34375 178.101562 199.226562 178.058594 C 197.765625 180.480469 196.230469 182.433594 193.667969 183.65625 C 193.578125 184.648438 192.84375 185.449219 191.882812 185.628906 C 191.789062 185.652344 191.078125 185.667969 190.980469 185.667969 L 182.230469 185.667969 C 182.222656 185.667969 182.21875 185.667969 182.210938 185.667969 C 182.199219 185.667969 181.570312 185.667969 181.558594 185.667969 C 180.375 185.667969 179.414062 184.738281 179.359375 183.566406 C 174.890625 181.355469 172.332031 176.894531 171.945312 171.664062 C 171.921875 171.3125 171.902344 170.953125 171.902344 170.59375 L 171.902344 168.949219 C 171.902344 168.753906 171.957031 168.570312 172.039062 168.40625 C 172.210938 167.953125 172.648438 167.628906 173.164062 167.628906 L 200.101562 167.628906 C 200.765625 167.628906 201.308594 168.167969 201.308594 168.835938 C 201.308594 168.855469 201.300781 168.871094 201.300781 168.890625 C 201.300781 168.910156 201.308594 168.929688 201.308594 168.949219 L 201.308594 170.089844 Z M 201.71875 175.917969 C 202.714844 175.917969 203.523438 175.105469 203.523438 174.109375 C 203.523438 173.109375 202.714844 172.300781 201.71875 172.300781 L 201.199219 172.300781 C 201.050781 173.5625 200.738281 174.773438 200.285156 175.917969 Z M 199.773438 186.429688 C 199.835938 186.429688 199.894531 186.4375 199.953125 186.449219 C 199.941406 187.660156 198.960938 188.636719 197.75 188.636719 L 176.574219 188.636719 C 175.359375 188.636719 174.378906 187.65625 174.371094 186.441406 C 174.410156 186.4375 174.449219 186.429688 174.488281 186.429688 Z M 180.949219 165.648438 C 180.6875 165.648438 180.425781 165.59375 180.195312 165.476562 C 179.597656 165.167969 179.445312 164.558594 179.863281 164.117188 C 181.335938 162.542969 180.121094 161.457031 179.976562 161.339844 C 178.984375 160.566406 177.667969 158.46875 179.863281 156.125 C 180.277344 155.683594 181.101562 155.574219 181.703125 155.878906 C 182.304688 156.1875 182.453125 156.796875 182.035156 157.238281 C 180.5 158.875 181.851562 159.960938 181.910156 160.003906 C 182.914062 160.789062 184.230469 162.886719 182.035156 165.226562 C 181.78125 165.5 181.367188 165.648438 180.949219 165.648438 Z M 186.355469 165.648438 C 186.09375 165.648438 185.832031 165.59375 185.601562 165.476562 C 185.003906 165.167969 184.851562 164.558594 185.269531 164.117188 C 186.742188 162.542969 185.527344 161.457031 185.382812 161.339844 C 184.390625 160.566406 183.074219 158.46875 185.269531 156.125 C 185.683594 155.683594 186.507812 155.574219 187.109375 155.878906 C 187.707031 156.1875 187.859375 156.796875 187.441406 157.238281 C 185.910156 158.875 187.257812 159.960938 187.316406 160.003906 C 188.320312 160.789062 189.636719 162.886719 187.441406 165.226562 C 187.1875 165.5 186.773438 165.648438 186.355469 165.648438 Z M 191.761719 165.648438 C 191.5 165.648438 191.242188 165.59375 191.011719 165.476562 C 190.410156 165.167969 190.261719 164.558594 190.675781 164.117188 C 192.148438 162.542969 190.933594 161.457031 190.792969 161.339844 C 189.800781 160.566406 188.480469 158.46875 190.675781 156.125 C 191.09375 155.683594 191.914062 155.570312 192.515625 155.878906 C 193.117188 156.1875 193.265625 156.796875 192.851562 157.238281 C 191.316406 158.875 192.664062 159.960938 192.722656 160.003906 C 193.726562 160.789062 195.046875 162.886719 192.851562 165.226562 C 192.59375 165.5 192.183594 165.648438 191.761719 165.648438 Z M 191.761719 165.648438 " fill-opacity="1" fill-rule="nonzero"/></g><g fill="#8b4513" fill-opacity="1"><g transform="translate(146.587078, 142.789739)"><g><path d="M 4.703125 -14.71875 C 5.046875 -14.101562 5.398438 -13.492188 5.765625 -12.890625 C 6.140625 -12.285156 6.515625 -11.671875 6.890625 -11.046875 L 7.203125 -10.53125 C 7.566406 -9.914062 7.929688 -9.300781 8.296875 -8.6875 C 8.671875 -8.082031 9.054688 -7.476562 9.453125 -6.875 L 10.703125 -7.46875 L 11.140625 -6.734375 L 6.578125 -3.984375 L 6.140625 -4.71875 L 7.25 -5.5625 C 6.914062 -6.15625 6.5625 -6.753906 6.1875 -7.359375 C 5.820312 -7.972656 5.441406 -8.609375 5.046875 -9.265625 L 1.0625 -6.84375 C 1.445312 -6.195312 1.820312 -5.566406 2.1875 -4.953125 C 2.5625 -4.347656 2.941406 -3.753906 3.328125 -3.171875 L 4.59375 -3.78125 L 5.03125 -3.046875 L 0.46875 -0.28125 L 0.03125 -1.015625 L 1.125 -1.859375 C 0.789062 -2.472656 0.4375 -3.082031 0.0625 -3.6875 C -0.300781 -4.300781 -0.671875 -4.921875 -1.046875 -5.546875 L -1.359375 -6.0625 C -1.734375 -6.675781 -2.101562 -7.285156 -2.46875 -7.890625 C -2.832031 -8.492188 -3.21875 -9.097656 -3.625 -9.703125 L -4.875 -9.125 L -5.3125 -9.84375 L -0.75 -12.609375 L -0.3125 -11.890625 L -1.421875 -11.015625 C -1.109375 -10.453125 -0.78125 -9.890625 -0.4375 -9.328125 C -0.101562 -8.773438 0.234375 -8.210938 0.578125 -7.640625 L 4.5625 -10.0625 C 4.21875 -10.625 3.875 -11.1875 3.53125 -11.75 C 3.195312 -12.3125 2.851562 -12.863281 2.5 -13.40625 L 1.234375 -12.828125 L 0.796875 -13.546875 L 5.359375 -16.296875 L 5.796875 -15.578125 Z M 4.703125 -14.71875 "/></g></g></g><g fill="#8b4513" fill-opacity="1"><g transform="translate(159.352527, 135.338647)"><g><path d="M 4.703125 -6.375 L 2.15625 -9.5 L 2.078125 -5.4375 Z M 10.484375 -4.625 L 10.765625 -3.828125 L 6.015625 -2.140625 L 5.734375 -2.9375 L 7.015625 -3.546875 L 5.328125 -5.59375 L 2.078125 -4.4375 L 2.046875 -1.859375 L 3.40625 -2.125 L 3.6875 -1.3125 L 0.078125 -0.03125 L -0.203125 -0.84375 L 1.15625 -1.5625 L 1.328125 -12.34375 L 2.296875 -12.6875 L 9.359375 -4.359375 Z M 10.484375 -4.625 "/></g></g></g><g fill="#8b4513" fill-opacity="1"><g transform="translate(171.5126, 131.243891)"><g><path d="M 4.28125 -7.484375 C 4.90625 -7.359375 5.441406 -7.207031 5.890625 -7.03125 C 6.347656 -6.851562 6.71875 -6.640625 7 -6.390625 C 7.289062 -6.148438 7.515625 -5.882812 7.671875 -5.59375 C 7.835938 -5.300781 7.953125 -4.988281 8.015625 -4.65625 C 8.097656 -4.164062 8.066406 -3.695312 7.921875 -3.25 C 7.785156 -2.800781 7.550781 -2.382812 7.21875 -2 C 6.882812 -1.613281 6.457031 -1.285156 5.9375 -1.015625 C 5.425781 -0.753906 4.835938 -0.566406 4.171875 -0.453125 C 3.523438 -0.347656 2.875 -0.316406 2.21875 -0.359375 C 1.570312 -0.398438 0.988281 -0.515625 0.46875 -0.703125 L 0.15625 -3.21875 L 1.546875 -3.453125 L 2.234375 -1.5 C 2.503906 -1.414062 2.785156 -1.359375 3.078125 -1.328125 C 3.367188 -1.304688 3.671875 -1.320312 3.984375 -1.375 C 4.691406 -1.5 5.210938 -1.753906 5.546875 -2.140625 C 5.890625 -2.535156 6.015625 -3.003906 5.921875 -3.546875 C 5.847656 -3.972656 5.648438 -4.285156 5.328125 -4.484375 C 5.015625 -4.679688 4.535156 -4.84375 3.890625 -4.96875 L 3.015625 -5.125 C 1.960938 -5.300781 1.101562 -5.640625 0.4375 -6.140625 C -0.226562 -6.640625 -0.632812 -7.304688 -0.78125 -8.140625 C -0.851562 -8.617188 -0.828125 -9.066406 -0.703125 -9.484375 C -0.585938 -9.910156 -0.378906 -10.296875 -0.078125 -10.640625 C 0.222656 -10.992188 0.609375 -11.289062 1.078125 -11.53125 C 1.546875 -11.78125 2.109375 -11.960938 2.765625 -12.078125 C 3.378906 -12.179688 3.96875 -12.203125 4.53125 -12.140625 C 5.101562 -12.085938 5.613281 -11.957031 6.0625 -11.75 L 6.34375 -9.40625 L 4.96875 -9.171875 L 4.28125 -11.109375 C 4.050781 -11.160156 3.820312 -11.191406 3.59375 -11.203125 C 3.375 -11.210938 3.15625 -11.195312 2.9375 -11.15625 C 2.363281 -11.0625 1.910156 -10.832031 1.578125 -10.46875 C 1.253906 -10.113281 1.140625 -9.664062 1.234375 -9.125 C 1.304688 -8.65625 1.523438 -8.3125 1.890625 -8.09375 C 2.253906 -7.875 2.742188 -7.71875 3.359375 -7.625 Z M 4.28125 -7.484375 "/></g></g></g><g fill="#8b4513" fill-opacity="1"><g transform="translate(181.858913, 129.505576)"><g><path d="M 5 -0.953125 C 5.59375 -0.953125 6.082031 -1.003906 6.46875 -1.109375 C 6.851562 -1.222656 7.148438 -1.378906 7.359375 -1.578125 C 7.578125 -1.773438 7.726562 -2.007812 7.8125 -2.28125 C 7.894531 -2.5625 7.9375 -2.878906 7.9375 -3.234375 C 7.9375 -4.023438 7.722656 -4.59375 7.296875 -4.9375 C 6.878906 -5.28125 6.15625 -5.445312 5.125 -5.4375 L 4.4375 -5.4375 C 4.4375 -4.644531 4.4375 -3.878906 4.4375 -3.140625 C 4.445312 -2.398438 4.460938 -1.671875 4.484375 -0.953125 Z M 4.453125 -10.25 C 4.429688 -9.601562 4.421875 -8.953125 4.421875 -8.296875 C 4.421875 -7.648438 4.425781 -7 4.4375 -6.34375 L 5.0625 -6.34375 C 5.882812 -6.34375 6.476562 -6.515625 6.84375 -6.859375 C 7.21875 -7.203125 7.40625 -7.695312 7.40625 -8.34375 C 7.40625 -8.988281 7.238281 -9.46875 6.90625 -9.78125 C 6.570312 -10.09375 6.035156 -10.25 5.296875 -10.25 Z M 5.859375 -11.1875 C 7.203125 -11.195312 8.1875 -10.945312 8.8125 -10.4375 C 9.445312 -9.925781 9.765625 -9.25 9.765625 -8.40625 C 9.765625 -8.132812 9.726562 -7.867188 9.65625 -7.609375 C 9.59375 -7.359375 9.476562 -7.125 9.3125 -6.90625 C 9.15625 -6.6875 8.945312 -6.5 8.6875 -6.34375 C 8.425781 -6.1875 8.109375 -6.054688 7.734375 -5.953125 C 8.234375 -5.859375 8.648438 -5.722656 8.984375 -5.546875 C 9.328125 -5.367188 9.601562 -5.160156 9.8125 -4.921875 C 10.03125 -4.679688 10.179688 -4.414062 10.265625 -4.125 C 10.359375 -3.832031 10.40625 -3.523438 10.40625 -3.203125 C 10.40625 -2.816406 10.335938 -2.4375 10.203125 -2.0625 C 10.066406 -1.6875 9.800781 -1.347656 9.40625 -1.046875 C 9.019531 -0.742188 8.476562 -0.5 7.78125 -0.3125 C 7.082031 -0.125 6.179688 -0.0234375 5.078125 -0.015625 L 0.546875 0 L 0.546875 -0.859375 L 1.921875 -1 C 1.953125 -1.707031 1.960938 -2.414062 1.953125 -3.125 C 1.953125 -3.84375 1.953125 -4.566406 1.953125 -5.296875 L 1.953125 -5.890625 C 1.941406 -6.609375 1.9375 -7.320312 1.9375 -8.03125 C 1.9375 -8.738281 1.921875 -9.453125 1.890625 -10.171875 L 0.515625 -10.328125 L 0.5 -11.171875 Z M 5.859375 -11.1875 "/></g></g></g><g fill="#8b4513" fill-opacity="1"><g transform="translate(194.049778, 129.607746)"><g><path d="M 10.140625 -1.265625 L 9.515625 1.640625 L 0.53125 0.09375 L 0.671875 -0.75 L 2.0625 -0.65625 C 2.207031 -1.351562 2.34375 -2.050781 2.46875 -2.75 C 2.59375 -3.457031 2.71875 -4.171875 2.84375 -4.890625 L 2.9375 -5.484375 C 3.0625 -6.179688 3.179688 -6.878906 3.296875 -7.578125 C 3.421875 -8.285156 3.53125 -8.992188 3.625 -9.703125 L 2.28125 -10.078125 L 2.4375 -10.921875 L 11.078125 -9.4375 L 10.6875 -6.46875 L 9.421875 -6.6875 L 9.421875 -8.75 L 6.15625 -9.3125 C 6.03125 -8.6875 5.910156 -8.046875 5.796875 -7.390625 C 5.679688 -6.742188 5.566406 -6.085938 5.453125 -5.421875 L 7.609375 -5.046875 L 8.09375 -6.5 L 9 -6.34375 L 8.328125 -2.4375 L 7.421875 -2.59375 L 7.46875 -4.125 L 5.296875 -4.5 C 5.160156 -3.726562 5.03125 -2.988281 4.90625 -2.28125 C 4.789062 -1.570312 4.679688 -0.859375 4.578125 -0.140625 L 8.171875 0.484375 L 8.875 -1.46875 Z M 10.140625 -1.265625 "/></g></g></g><g fill="#8b4513" fill-opacity="1"><g transform="translate(205.402096, 131.630154)"><g><path d="M 7.6875 -1.90625 L 7.703125 -5.9375 L 5.0625 -2.859375 Z M 11.03125 3.109375 L 10.734375 3.90625 L 6 2.1875 L 6.296875 1.390625 L 7.671875 1.734375 L 7.671875 -0.90625 L 4.4375 -2.078125 L 2.75 -0.125 L 3.984375 0.53125 L 3.6875 1.34375 L 0.078125 0.03125 L 0.375 -0.78125 L 1.890625 -0.46875 L 8.890625 -8.65625 L 9.859375 -8.296875 L 9.984375 2.609375 Z M 11.03125 3.109375 "/></g></g></g><g fill="#8b4513" fill-opacity="1"><g transform="translate(217.346852, 136.036616)"><g><path d="M 16.09375 -2.28125 L 14.59375 -2.90625 L 9.25 5.84375 L 8.515625 5.390625 L 7.078125 -5.765625 L 3.15625 0.65625 L 4.703125 1.859375 L 4.25 2.59375 L 0.375 0.234375 L 0.828125 -0.5 L 2.296875 0.140625 L 6.875 -7.375 L 6.828125 -7.78125 L 5.890625 -8.484375 L 6.328125 -9.21875 L 9.203125 -7.46875 L 10.40625 2.09375 L 13.765625 -3.421875 L 12.203125 -4.640625 L 12.640625 -5.359375 L 16.53125 -3 Z M 16.09375 -2.28125 "/></g></g></g></svg>