<?xml version="1.0" encoding="utf-8"?>
<!-- Generator: Adobe Illustrator 27.0.1, SVG Export Plug-In . SVG Version: 6.00 Build 0)  -->
<svg version="1.1" id="Layer_1" xmlns="http://www.w3.org/2000/svg" xmlns:xlink="http://www.w3.org/1999/xlink" x="0px" y="0px"
	 viewBox="0 0 170 202" style="enable-background:new 0 0 170 202;" xml:space="preserve">
<style type="text/css">
	.st0{clip-path:url(#SVGID_00000036228920273256862260000013981388934879580336_);}
	.st1{fill:#CD853F;}
</style>
<g>
	<defs>
		<rect id="SVGID_1_" x="36.9" y="46.4" width="94" height="130"/>
	</defs>
	<clipPath id="SVGID_00000145021388927173861630000004863326438331568311_">
		<use xlink:href="#SVGID_1_"  style="overflow:visible;"/>
	</clipPath>
	<g style="clip-path:url(#SVGID_00000145021388927173861630000004863326438331568311_);">
		<path class="st1" d="M76.4,152.2c-1.8-5.4-5.2-10.1-9.7-13.6l-11-8.6c-11.3-8.8-18.2-22.1-18.8-36.5c0-26,21-47.1,47-47.1
			s47,21.1,47,47.1c-0.6,14.3-7.5,27.7-18.8,36.5l-11,8.6c-4.5,3.5-7.8,8.2-9.7,13.6l-1.3,3.8c-0.9,2.7-3.4,4.5-6.2,4.5
			s-5.3-1.8-6.2-4.5L76.4,152.2z M83.9,176.4c-10.4,0-18.8-1.3-18.8-2.8s8.4-2.8,18.8-2.8s18.8,1.3,18.8,2.8S94.3,176.4,83.9,176.4z
			 M83.9,130.3c20.8,0,37.6-16.9,37.6-37.7c0-20.8-16.8-37.7-37.6-37.7S46.3,71.8,46.3,92.6C46.3,113.4,63.1,130.3,83.9,130.3z
			 M103,88.2c2.9,0,5.3,2.4,5.3,5.4s-2.4,5.4-5.3,5.4h-2.8c-0.2,0-0.3,0-0.5-0.1c-1.9,3.2-4,5.8-7.4,7.5c-0.1,1.3-1.1,2.4-2.4,2.6
			c-0.1,0-1.1,0.1-1.2,0.1H77c0,0,0,0,0,0c0,0-0.9,0-0.9,0c-1.6,0-2.9-1.2-2.9-2.8c-6-2.9-9.4-8.9-9.9-15.9c0-0.5-0.1-0.9-0.1-1.4
			v-2.2c0-0.3,0.1-0.5,0.2-0.7c0.2-0.6,0.8-1,1.5-1h35.9c0.9,0,1.6,0.7,1.6,1.6c0,0,0,0,0,0.1s0,0.1,0,0.1v1.5H103z M103,96
			c1.3,0,2.4-1.1,2.4-2.4c0-1.3-1.1-2.4-2.4-2.4h-0.7c-0.2,1.7-0.6,3.3-1.2,4.8H103z M100.4,110c0.1,0,0.2,0,0.2,0
			c0,1.6-1.3,2.9-2.9,2.9H69.4c-1.6,0-2.9-1.3-2.9-2.9c0.1,0,0.1,0,0.2,0H100.4z M75.3,82.3c-0.3,0-0.7-0.1-1-0.2
			c-0.8-0.4-1-1.2-0.4-1.8c2-2.1,0.3-3.5,0.2-3.7c-1.3-1-3.1-3.8-0.2-7c0.6-0.6,1.7-0.7,2.5-0.3c0.8,0.4,1,1.2,0.4,1.8
			c-2,2.2-0.2,3.6-0.2,3.7c1.3,1,3.1,3.8,0.2,7C76.4,82.1,75.8,82.3,75.3,82.3z M82.5,82.3c-0.3,0-0.7-0.1-1-0.2
			c-0.8-0.4-1-1.2-0.4-1.8c2-2.1,0.3-3.5,0.2-3.7c-1.3-1-3.1-3.8-0.2-7c0.6-0.6,1.7-0.7,2.5-0.3c0.8,0.4,1,1.2,0.4,1.8
			c-2,2.2-0.2,3.6-0.2,3.7c1.3,1,3.1,3.8,0.2,7C83.6,82.1,83,82.3,82.5,82.3z M89.7,82.3c-0.3,0-0.7-0.1-1-0.2
			c-0.8-0.4-1-1.2-0.4-1.8c2-2.1,0.3-3.5,0.2-3.7c-1.3-1-3.1-3.8-0.2-7c0.6-0.6,1.7-0.7,2.5-0.3s1,1.2,0.4,1.8
			c-2,2.2-0.2,3.6-0.2,3.7c1.3,1,3.1,3.8,0.2,7C90.8,82.1,90.2,82.3,89.7,82.3z"/>
	</g>
</g>
<g>
	<g transform="translate(146.587078, 142.789739)">
		<g>
			<path class="st1" d="M-110.9-110.6c0.5,0.8,0.9,1.6,1.4,2.4c0.5,0.8,1,1.6,1.5,2.5l0.4,0.7c0.5,0.8,1,1.6,1.5,2.5
				c0.5,0.8,1,1.6,1.5,2.4l1.7-0.8l0.6,1l-6.1,3.7l-0.6-1l1.5-1.1c-0.4-0.8-0.9-1.6-1.4-2.4c-0.5-0.8-1-1.7-1.5-2.5l-5.3,3.2
				c0.5,0.9,1,1.7,1.5,2.5c0.5,0.8,1,1.6,1.5,2.4l1.7-0.8l0.6,1l-6.1,3.7l-0.6-1l1.5-1.1c-0.4-0.8-0.9-1.6-1.4-2.4
				c-0.5-0.8-1-1.6-1.5-2.5L-119-99c-0.5-0.8-1-1.6-1.5-2.4c-0.5-0.8-1-1.6-1.5-2.4l-1.7,0.8l-0.6-1l6.1-3.7l0.6,1l-1.5,1.2
				c0.4,0.8,0.9,1.5,1.3,2.2c0.4,0.7,0.9,1.5,1.4,2.2l5.3-3.2c-0.5-0.8-0.9-1.5-1.4-2.2c-0.4-0.8-0.9-1.5-1.4-2.2l-1.7,0.8l-0.6-1
				l6.1-3.7l0.6,1L-110.9-110.6z"/>
		</g>
	</g>
</g>
<g>
	<g transform="translate(159.352527, 135.338647)">
		<g>
			<path class="st1" d="M-106.6-101.9l-3.4-4.2l-0.1,5.4L-106.6-101.9z M-98.9-99.6l0.4,1.1l-6.3,2.2l-0.4-1.1l1.7-0.8l-2.2-2.7
				l-4.3,1.5l0,3.4l1.8-0.4l0.4,1.1l-4.8,1.7l-0.4-1.1l1.8-1l0.2-14.4l1.3-0.5l9.4,11.1L-98.9-99.6z"/>
		</g>
	</g>
</g>
<g>
	<g transform="translate(171.5126, 131.243891)">
		<g>
			<path class="st1" d="M-103.1-104.8c0.8,0.2,1.5,0.4,2.1,0.6c0.6,0.2,1.1,0.5,1.5,0.9c0.4,0.3,0.7,0.7,0.9,1.1
				c0.2,0.4,0.4,0.8,0.5,1.2c0.1,0.7,0.1,1.3-0.1,1.9c-0.2,0.6-0.5,1.2-0.9,1.7c-0.4,0.5-1,1-1.7,1.3c-0.7,0.3-1.5,0.6-2.4,0.8
				c-0.9,0.1-1.7,0.2-2.6,0.1c-0.9-0.1-1.6-0.2-2.3-0.5l-0.4-3.4l1.9-0.3l0.9,2.6c0.4,0.1,0.7,0.2,1.1,0.2c0.4,0,0.8,0,1.2-0.1
				c0.9-0.2,1.6-0.5,2.1-1c0.5-0.5,0.6-1.2,0.5-1.9c-0.1-0.6-0.4-1-0.8-1.2c-0.4-0.3-1.1-0.5-1.9-0.6l-1.2-0.2
				c-1.4-0.2-2.6-0.7-3.4-1.4c-0.9-0.7-1.4-1.6-1.6-2.7c-0.1-0.6-0.1-1.2,0.1-1.8c0.2-0.6,0.4-1.1,0.8-1.5c0.4-0.5,0.9-0.9,1.5-1.2
				c0.6-0.3,1.4-0.6,2.2-0.7c0.8-0.1,1.6-0.2,2.4-0.1c0.8,0.1,1.4,0.2,2,0.5l0.4,3.1l-1.8,0.3l-0.9-2.6c-0.3-0.1-0.6-0.1-0.9-0.1
				c-0.3,0-0.6,0-0.9,0.1c-0.8,0.1-1.4,0.4-1.8,0.9c-0.4,0.5-0.6,1.1-0.5,1.8c0.1,0.6,0.4,1.1,0.9,1.4c0.5,0.3,1.1,0.5,2,0.6
				L-103.1-104.8z"/>
		</g>
	</g>
</g>
<g>
	<g transform="translate(181.858913, 129.505576)">
		<g>
			<path class="st1" d="M-98.7-96.7c0.8,0,1.4-0.1,2-0.2c0.5-0.2,0.9-0.4,1.2-0.6c0.3-0.3,0.5-0.6,0.6-0.9c0.1-0.4,0.2-0.8,0.2-1.3
				c0-1.1-0.3-1.8-0.9-2.3c-0.6-0.5-1.5-0.7-2.9-0.7h-0.9c0,1.1,0,2.1,0,3.1c0,1,0,2,0.1,2.9H-98.7z M-99.4-109c0,0.9,0,1.7,0,2.6
				c0,0.9,0,1.7,0,2.6h0.8c1.1,0,1.9-0.2,2.4-0.7c0.5-0.5,0.8-1.1,0.8-2c0-0.9-0.2-1.5-0.7-1.9c-0.4-0.4-1.2-0.6-2.1-0.6H-99.4z
				 M-97.6-110.3c1.8,0,3.1,0.3,3.9,1c0.8,0.7,1.3,1.6,1.3,2.7c0,0.4-0.1,0.7-0.1,1.1c-0.1,0.3-0.2,0.6-0.5,0.9
				c-0.2,0.3-0.5,0.5-0.8,0.8c-0.3,0.2-0.8,0.4-1.3,0.5c0.7,0.1,1.2,0.3,1.7,0.5c0.5,0.2,0.8,0.5,1.1,0.8c0.3,0.3,0.5,0.7,0.6,1.1
				c0.1,0.4,0.2,0.8,0.2,1.2c0,0.5-0.1,1-0.3,1.5c-0.2,0.5-0.5,1-1.1,1.4c-0.5,0.4-1.2,0.7-2.2,1c-0.9,0.2-2.1,0.4-3.6,0.4l-6,0
				v-1.1l1.8-0.2c0-0.9,0.1-1.9,0-2.8c0-1,0-1.9,0-2.9v-0.8c0-1,0-1.9,0-2.9c0-0.9,0-1.9-0.1-2.9l-1.8-0.2l0-1.1L-97.6-110.3z"/>
		</g>
	</g>
</g>
<g>
	<g transform="translate(194.049778, 129.607746)">
		<g>
			<path class="st1" d="M-87.8-97l-0.8,3.9l-12-2.1l0.2-1.1l1.9,0.1c0.2-0.9,0.4-1.9,0.5-2.8c0.2-0.9,0.3-1.9,0.5-2.9l0.1-0.8
				c0.2-0.9,0.3-1.9,0.5-2.8c0.2-0.9,0.3-1.9,0.4-2.8l-1.8-0.5l0.2-1.1l11.5,2l-0.5,4l-1.7-0.3v-2.8l-4.4-0.8
				c-0.2,0.8-0.3,1.7-0.5,2.6c-0.2,0.9-0.3,1.7-0.5,2.6l2.9,0.5l0.6-1.9l1.2,0.2l-0.9,5.2l-1.2-0.2l0.1-2l-2.9-0.5
				c-0.2,1-0.4,2-0.5,3c-0.2,0.9-0.3,1.9-0.4,2.9l4.8,0.8l0.9-2.6L-87.8-97z"/>
		</g>
	</g>
</g>
<g>
	<g transform="translate(205.402096, 131.630154)">
		<g>
			<path class="st1" d="M-87.3-97.2l0-5.4l-3.5,4.1L-87.3-97.2z M-82.8-90.5l-0.4,1.1l-6.3-2.3l0.4-1.1l1.8,0.5v-3.5l-4.3-1.6
				l-2.2,2.6l1.6,0.9l-0.4,1.1l-4.8-1.8l0.4-1.1l2,0.4l9.3-10.9l1.3,0.5l0.2,14.5L-82.8-90.5z"/>
		</g>
	</g>
</g>
<g>
	<g transform="translate(217.346852, 136.036616)">
		<g>
			<path class="st1" d="M-72.1-96.2l-2-0.8l-7.1,11.7l-1-0.6l-1.9-14.9l-5.2,8.6l2.1,1.6l-0.6,1l-5.2-3.1l0.6-1l2,0.9l6.1-10
				l-0.1-0.5l-1.2-0.9l0.6-1l3.8,2.3l1.6,12.8l4.5-7.4l-2.1-1.6l0.6-1l5.2,3.1L-72.1-96.2z"/>
		</g>
	</g>
</g>
</svg>
