<?xml version="1.0" encoding="UTF-8" standalone="no"?>
<svg
   xmlns:dc="http://purl.org/dc/elements/1.1/"
   xmlns:cc="http://creativecommons.org/ns#"
   xmlns:rdf="http://www.w3.org/1999/02/22-rdf-syntax-ns#"
   xmlns:svg="http://www.w3.org/2000/svg"
   xmlns="http://www.w3.org/2000/svg"
   viewBox="0 0 869.29065 246.04668"
   height="246.04668"
   width="869.29065"
   xml:space="preserve"
   id="svg2"
   version="1.1"><metadata
     id="metadata8"><rdf:RDF><cc:Work
         rdf:about=""><dc:format>image/svg+xml</dc:format><dc:type
           rdf:resource="http://purl.org/dc/dcmitype/StillImage" /></cc:Work></rdf:RDF></metadata><defs
     id="defs6"><clipPath
       id="clipPath18"
       clipPathUnits="userSpaceOnUse"><path
         id="path16"
         d="M 0,184.535 H 651.969 V 0 H 0 Z" /></clipPath></defs><g
     transform="matrix(1.3333333,0,0,-1.3333333,0,246.04667)"
     id="g10"><g
       id="g12"><g
         clip-path="url(#clipPath18)"
         id="g14"><g
           transform="translate(167.7204,11.4773)"
           id="g20"><path
             id="path22"
             style="fill:#291710;fill-opacity:1;fill-rule:nonzero;stroke:none"
             d="m 0,0 h 22.152 l 1.479,6.018 H 8.712 l 1.686,6.895 h 11.72 l 1.439,5.851 H 11.836 l 1.543,6.298 h 14.927 l 1.516,6.151 H 7.666 Z M 144.486,31.213 H 129.878 L 122.222,0 h 7.362 l 3.018,12.286 h 5.281 L 139.619,0 h 8.042 l -2.342,13.83 c 3.465,0.849 6.275,4.389 7.158,8.018 1.137,4.635 -0.765,9.365 -7.991,9.365 m 0.65,-9.498 c -0.505,-2.047 -2.383,-3.99 -5.233,-3.99 h -6.068 l 1.922,7.841 h 6.434 c 2.572,0 3.432,-1.86 2.945,-3.851 m -88.833,4.137 c 2.4,0 4.542,-1.056 4.583,-3.636 l 6.695,2.031 C 66.893,30.472 61.786,31.599 57.447,31.599 49.016,31.328 45.229,26.035 44.078,21.715 44.034,21.171 43.96,20.538 43.844,20.081 43.069,11.132 54.78,13.549 57.007,10.286 57.376,9.748 57.393,9.11 57.248,8.512 56.777,6.612 53.931,5.293 51.443,5.293 49.618,5.385 46.288,5.842 46.186,9.824 L 39.082,8.156 c 0.19,-7.885 6.969,-8.628 10.591,-8.628 5.28,0 12.157,2.038 14.743,8.9 2.041,5.581 -0.312,9.206 -5.625,10.61 -3.801,0.725 -7.971,1.043 -7.243,3.998 0.518,2.111 2.717,2.816 4.755,2.816 m 46.122,5.361 H 88.241 L 80.574,0 h 7.233 l 2.843,11.599 h 6.969 c 6.512,0 11.112,4.948 12.307,9.832 1.214,4.962 -0.904,9.782 -7.501,9.782 m 0.265,-9.782 c -0.495,-2.035 -2.742,-4.16 -5.531,-4.16 h -5.111 l 2.017,8.249 h 4.657 c 3.345,0 4.502,-1.94 3.968,-4.089 m 204.068,10.168 c -6.282,0 -14.652,-4.574 -17.288,-15.743 -3.378,-15.142 5.533,-16.256 9.256,-16.256 7.866,0 14.277,5.328 17.072,15.624 2.106,7.812 -0.233,16.375 -9.04,16.375 m 2.085,-12.653 c -0.115,-1.221 -0.433,-2.494 -0.738,-3.722 -0.924,-3.801 -2.968,-9.745 -7.983,-9.931 -2.607,0.092 -4.712,2.762 -3.707,7.541 0,0 0.385,1.581 0.727,3.354 0.357,1.083 0.613,2.125 0.89,2.942 1.74,4.45 4.685,6.546 7.166,6.546 2.68,0 4.545,-2.37 3.645,-6.73 m 142.55,39.645 h -600.039 c -0.487,0 -0.893,-0.362 -1.34,-1.212 -1.987,-3.812 -3.523,-7.094 -3.533,-7.114 -0.129,-0.533 0.196,-0.965 0.727,-0.965 h 601.968 c 0.288,0 0.998,0.325 1.148,0.94 l 1.797,7.437 c 0.078,0.342 -0.139,0.914 -0.728,0.914 m 8.066,84.064 h -30.326 c -7.501,0 -15.035,-6.09 -16.885,-13.606 l -4.056,-16.494 c -1.838,-7.513 2.725,-13.606 10.222,-13.606 0,0 20.27,0.01 20.311,0.01 2.437,0 3.937,-1.983 3.33,-4.433 l -2.813,-11.542 c -0.778,-3.202 -4.01,-5.801 -7.205,-5.801 h -8.929 c -2.443,0 -3.923,1.98 -3.334,4.43 l 0.548,2.284 c 0.136,0.532 -0.189,0.962 -0.724,0.962 h -17.235 c -0.524,0 -1.059,-0.426 -1.187,-0.954 l -1.114,-4.512 c -0.532,-2.173 -0.52,-4.228 -0.068,-6.055 H 379.09 c 1.361,1.827 2.37,3.885 2.912,6.065 l 4.16,16.93 c 1.746,7.127 -2.163,13.725 -10.639,13.725 h -19.871 c -2.486,0 -3.916,2.078 -3.343,4.437 0.006,0.02 3.032,12.33 3.032,12.33 0.599,2.45 3.053,4.434 5.503,4.434 h 10.3 c 2.446,0 3.936,-1.984 3.334,-4.434 0,-0.014 -0.48,-1.892 -0.48,-1.892 -0.103,-0.511 0.25,-0.912 0.76,-0.912 h 17.238 c 0.521,0 1.033,0.414 1.178,0.922 l 1.019,4.106 c 1.838,7.516 -2.755,13.606 -10.221,13.606 h -30.33 c -7.507,0 -15.048,-6.09 -16.882,-13.606 l -4.066,-16.494 c -1.838,-7.513 2.729,-13.606 10.218,-13.606 0,0 20.278,0.01 20.315,0.01 2.44,0 3.93,-1.983 3.334,-4.433 l -2.812,-11.542 c -0.789,-3.202 -4.011,-5.801 -7.212,-5.801 h -8.92 c -2.45,0 -3.936,1.98 -3.33,4.43 l 0.541,2.284 c 0.13,0.532 -0.189,0.962 -0.727,0.962 H 326.88 c -0.528,0 -1.063,-0.426 -1.202,-0.954 l -1.107,-4.512 c -0.53,-2.173 -0.528,-4.228 -0.071,-6.055 h -17.018 l 4.878,10.268 c 0.352,0.725 -0.274,1.405 -1.053,1.405 h -15.759 c -0.893,0 -1.404,-0.873 -1.611,-1.211 l -3.415,-5.605 c -0.254,-0.424 -0.748,-1.009 -1.293,-1.012 h -13.718 c -2.494,0 -3.969,2.031 -3.381,4.43 l 3.804,15.637 c 0.214,0.863 1.077,1.692 2.096,1.699 h 25.946 c 0.633,0 1.11,0.488 1.256,1.124 l 2.156,8.841 c 0.159,0.632 -0.223,1.144 -0.86,1.144 h -25.767 c -0.934,0.003 -1.503,0.761 -1.27,1.692 l 3.693,15.075 c 0.515,2.403 3.057,4.434 5.494,4.434 h 30.369 c 0.966,0 1.883,0.768 2.117,1.692 l 1.275,5.267 c 0.596,2.449 -0.894,4.437 -3.34,4.437 h -45.388 c -3.202,0 -6.417,-2.6 -7.206,-5.808 L 252.414,79.393 c -0.534,-2.18 -0.524,-4.234 -0.06,-6.055 h -22.305 l -8.221,23.357 c -0.538,1.235 0.633,2.637 1.794,2.941 10.15,1.774 14.404,9.308 15.291,12.946 l 4.035,16.467 c 1.831,7.516 -2.752,13.609 -10.225,13.609 h -42.724 c -3.192,0 -6.411,-2.599 -7.206,-5.811 L 166.916,73.338 h -58.791 l 13.403,53.484 c 0.65,2.599 2.843,4.437 6.035,4.437 h 14.388 c 2.44,0 3.936,-1.988 3.334,-4.434 l -2.904,-11.921 c -0.924,-3.185 -3.767,-5.862 -7.213,-5.862 h -7.507 c -0.531,0 -1.07,-0.43 -1.191,-0.965 l -2.024,-8.167 c -0.132,-0.534 0.196,-0.961 0.724,-0.961 h 18.846 c 6.136,0 14.716,4.498 16.953,13.633 L 165,129.044 c 1.838,7.515 -2.745,13.611 -10.228,13.611 h -42.714 c -3.198,0 -6.418,-2.6 -7.206,-5.808 L 88.975,73.338 H 76.354 l 4.934,10.37 c 0.346,0.721 -0.284,1.402 -1.055,1.402 H 63.665 C 62.971,85.089 62.406,84.632 62.03,83.935 l -3.415,-5.643 c -0.379,-0.571 -0.863,-1.109 -1.632,-1.109 l -13.406,0.003 c -2.491,0 -4.004,2.001 -3.412,4.414 0.014,0.05 14.686,60.093 14.686,60.093 0.129,0.532 -0.193,0.965 -0.728,0.965 H 36.899 c -0.535,0 -1.07,-0.433 -1.198,-0.965 L 20.477,79.393 C 19.952,77.22 19.959,75.165 20.413,73.338 H 8.543 l 4.934,10.37 c 0.346,0.721 -0.281,1.402 -1.052,1.402 -5.534,0 -11.057,-0.005 -16.588,0 -0.525,-0.021 -1.127,-0.339 -1.615,-1.213 L -9.19,78.292 c -0.081,-0.097 -0.768,-1.184 -1.607,-1.109 l -13.44,0.003 c -2.488,0 -3.991,2.014 -3.402,4.419 0.01,0.052 14.679,60.088 14.679,60.088 0.129,0.532 -0.196,0.965 -0.724,0.965 h -17.231 c -0.528,0 -1.063,-0.433 -1.192,-0.965 l -15.22,-62.3 c -0.535,-2.173 -0.528,-4.228 -0.071,-6.055 h -18.077 l -3.06,79.185 c -0.136,0.868 -0.65,3.149 -3.32,3.206 h -21.997 c -2.705,0 -5.422,-1.868 -6.671,-4.386 l -21.184,-40.294 c 0.043,0 -0.657,-0.991 -1.635,-0.991 h -14.29 c -0.528,0 -1.066,-0.431 -1.195,-0.965 l -2.251,-9.183 c -0.125,-0.534 0.197,-0.961 0.725,-0.961 h 10.885 c 0.795,0.014 1.035,-0.667 0.772,-1.174 l -16.135,-30.94 c -0.251,-0.483 0.111,-1.038 0.646,-1.038 l 15.427,-0.005 c 0.752,0.005 1.094,0.343 1.263,0.699 l 16.439,31.389 c 0.247,0.476 0.917,1.066 1.669,1.069 h 24.291 c 0.69,-0.007 1.151,-0.494 1.144,-1.141 l 1.178,-30.816 c -0.041,-0.678 0.423,-1.195 1.14,-1.195 l 264.857,-0.01 c 0.525,0 1.063,0.433 1.192,0.964 h 0.006 l 15.048,60.074 c 0.694,2.781 3.283,4.437 5.5,4.437 h 14.327 c 2.61,0 4.651,-1.52 3.933,-4.437 -0.873,-3.987 -1.939,-7.961 -2.904,-11.921 -0.68,-3.178 -3.97,-5.86 -7.209,-5.86 h -7.504 c -0.534,0 -1.069,-0.428 -1.204,-0.963 0,0 -1.933,-7.768 -1.944,-7.819 -0.084,-0.338 -0.081,-0.646 -0.023,-0.93 L 213.58,68.251 c 0.551,-1.53 1.536,-2.459 3.34,-2.459 h 223.683 c 7.487,0 15.048,6.094 16.886,13.611 l 4.535,18.463 c 0.508,2.061 0.058,12.249 -11.224,12.249 l -19.644,-0.057 c -2.487,0 -3.922,2.074 -3.344,4.437 0,0.02 3.013,12.33 3.013,12.33 0.609,2.45 3.07,4.434 5.507,4.434 h 10.309 c 2.437,0 3.933,-1.984 3.337,-4.434 -0.006,-0.014 -0.48,-1.892 -0.48,-1.892 -0.109,-0.511 0.24,-0.912 0.764,-0.912 h 17.232 c 0.51,0 1.022,0.414 1.172,0.922 l 1.021,4.106 c 1.763,7.201 -2.634,13.606 -10.228,13.606 M -86.629,110.058 h -15.861 c -1.435,0 -1.573,1.438 -0.961,2.349 l 15.8,30.16 c 0.643,1.465 2.088,1.388 2.159,0.047 l 0.988,-30.425 c 0.034,-1.106 -1.025,-2.131 -2.125,-2.131 M 262.653,25.852 c 2.41,0 4.539,-1.056 4.586,-3.636 l 6.692,2.031 c -0.688,6.225 -5.795,7.352 -10.134,7.352 -8.424,-0.271 -12.211,-5.564 -13.373,-9.884 -0.03,-0.544 -0.104,-1.177 -0.219,-1.634 -0.789,-8.949 10.915,-6.532 13.162,-9.795 0.349,-0.538 0.386,-1.176 0.241,-1.774 -0.468,-1.9 -3.32,-3.219 -5.818,-3.219 -1.822,0.092 -5.159,0.549 -5.257,4.531 l -7.104,-1.668 c 0.186,-7.885 6.972,-8.628 10.587,-8.628 5.29,0 12.174,2.038 14.757,8.9 2.031,5.581 -0.317,9.206 -5.625,10.61 -3.801,0.725 -7.964,1.043 -7.24,3.998 0.518,2.111 2.721,2.816 4.745,2.816 m -40.73,0 c 2.393,0 4.538,-1.056 4.582,-3.636 l 6.692,2.031 c -0.694,6.225 -5.801,7.352 -10.137,7.352 -8.438,-0.271 -12.205,-5.564 -13.369,-9.884 -0.027,-0.544 -0.098,-1.177 -0.21,-1.634 -0.806,-8.949 10.908,-6.532 13.146,-9.795 0.359,-0.538 0.386,-1.176 0.23,-1.774 -0.454,-1.9 -3.314,-3.219 -5.801,-3.219 -1.828,0.092 -5.162,0.549 -5.26,4.531 l -7.108,-1.668 c 0.196,-7.885 6.973,-8.628 10.584,-8.628 5.297,0 12.174,2.038 14.757,8.9 2.044,5.581 -0.312,9.206 -5.612,10.61 -3.801,0.725 -7.974,1.043 -7.243,3.998 0.511,2.111 2.711,2.816 4.749,2.816 M 165.612,0 h 22.15 l 1.472,6.018 h -14.913 l 1.699,6.895 h 11.715 l 1.438,5.851 h -11.724 l 1.55,6.298 h 14.909 l 1.513,6.151 h -22.152 z" /></g></g></g></g></svg>